<svg width="30" height="30" viewBox="0 0 30 30" fill="none" xmlns="http://www.w3.org/2000/svg">
<rect x="0.5" y="0.5" width="29" height="29" rx="14.5" fill="white"/>
<path d="M9.66666 21.6667C9.66666 20.2523 10.2286 18.8957 11.2288 17.8955C12.2289 16.8953 13.5855 16.3334 15 16.3334C16.4145 16.3334 17.771 16.8953 18.7712 17.8955C19.7714 18.8957 20.3333 20.2523 20.3333 21.6667H19C19 20.6059 18.5786 19.5885 17.8284 18.8383C17.0783 18.0882 16.0609 17.6667 15 17.6667C13.9391 17.6667 12.9217 18.0882 12.1716 18.8383C11.4214 19.5885 11 20.6059 11 21.6667H9.66666ZM15 15.6667C12.79 15.6667 11 13.8767 11 11.6667C11 9.45675 12.79 7.66675 15 7.66675C17.21 7.66675 19 9.45675 19 11.6667C19 13.8767 17.21 15.6667 15 15.6667ZM15 14.3334C16.4733 14.3334 17.6667 13.1401 17.6667 11.6667C17.6667 10.1934 16.4733 9.00008 15 9.00008C13.5267 9.00008 12.3333 10.1934 12.3333 11.6667C12.3333 13.1401 13.5267 14.3334 15 14.3334Z" fill="#424242"/>
<rect x="0.5" y="0.5" width="29" height="29" rx="14.5" stroke="#424242"/>
</svg>
