<svg width="21" height="21" viewBox="0 0 21 21" fill="none" xmlns="http://www.w3.org/2000/svg">
<path d="M10.5 19.25C5.66738 19.25 1.75 15.3326 1.75 10.5C1.75 5.66738 5.66738 1.75 10.5 1.75C15.3326 1.75 19.25 5.66738 19.25 10.5C19.25 15.3326 15.3326 19.25 10.5 19.25ZM10.5 17.5C12.3565 17.5 14.137 16.7625 15.4497 15.4497C16.7625 14.137 17.5 12.3565 17.5 10.5C17.5 8.64349 16.7625 6.86301 15.4497 5.55025C14.137 4.2375 12.3565 3.5 10.5 3.5C8.64348 3.5 6.86301 4.2375 5.55025 5.55025C4.2375 6.86301 3.5 8.64349 3.5 10.5C3.5 12.3565 4.2375 14.137 5.55025 15.4497C6.86301 16.7625 8.64348 17.5 10.5 17.5ZM6.125 13.405C8.01067 13.2695 9.78398 12.4576 11.1186 11.1186C12.4576 9.78398 13.2695 8.01067 13.405 6.125C14.0515 6.55574 14.5944 7.1246 14.9945 7.79055C15.3946 8.4565 15.6418 9.20294 15.7185 9.97603C15.7952 10.7491 15.6993 11.5296 15.4378 12.2612C15.1764 12.9927 14.7558 13.6571 14.2065 14.2065C13.6571 14.7558 12.9927 15.1764 12.2611 15.4378C11.5296 15.6993 10.7491 15.7952 9.97603 15.7185C9.20294 15.6418 8.4565 15.3946 7.79055 14.9945C7.1246 14.5944 6.55574 14.0515 6.125 13.405Z" fill="#092644"/>
</svg>
