<svg width="21" height="21" viewBox="0 0 21 21" fill="none" xmlns="http://www.w3.org/2000/svg">
<path d="M12.25 12.4705V14.2992C11.4581 14.0193 10.6105 13.9334 9.77848 14.0488C8.94647 14.1643 8.1543 14.4777 7.4685 14.9627C6.78271 15.4477 6.2233 16.0902 5.83727 16.8362C5.45123 17.5823 5.24984 18.41 5.25 19.25L3.5 19.2491C3.49973 18.1807 3.74406 17.1263 4.21426 16.1668C4.68447 15.2074 5.36807 14.3683 6.21269 13.7139C7.05731 13.0595 8.04053 12.6071 9.08701 12.3914C10.1335 12.1758 11.2155 12.2025 12.25 12.4696V12.4705ZM10.5 11.375C7.59937 11.375 5.25 9.02563 5.25 6.125C5.25 3.22438 7.59937 0.875 10.5 0.875C13.4006 0.875 15.75 3.22438 15.75 6.125C15.75 9.02563 13.4006 11.375 10.5 11.375ZM10.5 9.625C12.4338 9.625 14 8.05875 14 6.125C14 4.19125 12.4338 2.625 10.5 2.625C8.56625 2.625 7 4.19125 7 6.125C7 8.05875 8.56625 9.625 10.5 9.625ZM15.75 14.875V11.8125L20.125 15.75L15.75 19.6875V16.625H13.125V14.875H15.75Z" fill="#092644"/>
</svg>
